<svg width="260" height="235" viewBox="0 0 260 235" fill="none" xmlns="http://www.w3.org/2000/svg">
<path d="M87.438 106.554C95.2033 106.554 102.423 108.253 109.096 111.65C115.769 115.047 121.108 119.84 125.112 126.028C129.116 132.216 131.118 139.314 131.118 147.322C131.118 156.179 128.813 164.005 124.202 170.8C119.713 177.595 113.525 182.812 105.638 186.452C97.7513 190.092 89.0153 191.912 79.43 191.912C67.1753 191.912 56.4373 189.546 47.216 184.814C38.116 180.082 31.018 173.045 25.922 163.702C20.826 154.359 18.278 142.893 18.278 129.304C18.278 114.744 21.19 102.125 27.014 91.448C32.9593 80.7707 41.21 72.6413 51.766 67.06C62.4433 61.4787 74.8193 58.688 88.894 58.688C96.538 58.688 103.818 59.598 110.734 61.418C117.65 63.1167 123.535 65.5433 128.388 68.698L112.918 98.728C106.609 94.2387 98.904 91.994 89.804 91.994C82.4027 91.994 76.2753 93.8747 71.422 97.636C66.69 101.276 63.596 106.615 62.14 113.652C68.8133 108.92 77.246 106.554 87.438 106.554ZM76.518 162.246C80.4007 162.246 83.5553 161.093 85.982 158.788C88.4087 156.483 89.622 153.328 89.622 149.324C89.622 145.32 88.4087 142.165 85.982 139.86C83.5553 137.433 80.4007 136.22 76.518 136.22C72.6353 136.22 69.4807 137.433 67.054 139.86C64.6273 142.165 63.414 145.32 63.414 149.324C63.414 153.328 64.6273 156.483 67.054 158.788C69.4807 161.093 72.6353 162.246 76.518 162.246ZM196.298 191.912C185.014 191.912 175.004 189.303 166.268 184.086C157.654 178.747 150.859 171.103 145.884 161.154C141.031 151.083 138.604 139.132 138.604 125.3C138.604 111.468 141.031 99.5773 145.884 89.628C150.859 79.5573 157.654 71.9133 166.268 66.696C175.004 61.3573 185.014 58.688 196.298 58.688C207.582 58.688 217.532 61.3573 226.146 66.696C234.882 71.9133 241.677 79.5573 246.53 89.628C251.505 99.5773 253.992 111.468 253.992 125.3C253.992 139.132 251.505 151.083 246.53 161.154C241.677 171.103 234.882 178.747 226.146 184.086C217.532 189.303 207.582 191.912 196.298 191.912ZM196.298 157.514C206.005 157.514 210.858 146.776 210.858 125.3C210.858 103.824 206.005 93.086 196.298 93.086C186.592 93.086 181.738 103.824 181.738 125.3C181.738 146.776 186.592 157.514 196.298 157.514Z" fill="#534FD2"/>
<path d="M74.438 93.554C82.2033 93.554 89.4227 95.2527 96.096 98.65C102.769 102.047 108.108 106.84 112.112 113.028C116.116 119.216 118.118 126.314 118.118 134.322C118.118 143.179 115.813 151.005 111.202 157.8C106.713 164.595 100.525 169.812 92.638 173.452C84.7513 177.092 76.0153 178.912 66.43 178.912C54.1753 178.912 43.4373 176.546 34.216 171.814C25.116 167.082 18.018 160.045 12.922 150.702C7.826 141.359 5.278 129.893 5.278 116.304C5.278 101.744 8.19 89.1253 14.014 78.448C19.9593 67.7707 28.21 59.6413 38.766 54.06C49.4433 48.4787 61.8193 45.688 75.894 45.688C83.538 45.688 90.818 46.598 97.734 48.418C104.65 50.1167 110.535 52.5433 115.388 55.698L99.918 85.728C93.6087 81.2387 85.904 78.994 76.804 78.994C69.4027 78.994 63.2753 80.8747 58.422 84.636C53.69 88.276 50.596 93.6147 49.14 100.652C55.8133 95.92 64.246 93.554 74.438 93.554ZM63.518 149.246C67.4007 149.246 70.5553 148.093 72.982 145.788C75.4087 143.483 76.622 140.328 76.622 136.324C76.622 132.32 75.4087 129.165 72.982 126.86C70.5553 124.433 67.4007 123.22 63.518 123.22C59.6353 123.22 56.4807 124.433 54.054 126.86C51.6273 129.165 50.414 132.32 50.414 136.324C50.414 140.328 51.6273 143.483 54.054 145.788C56.4807 148.093 59.6353 149.246 63.518 149.246ZM183.298 178.912C172.014 178.912 162.004 176.303 153.268 171.086C144.654 165.747 137.859 158.103 132.884 148.154C128.031 138.083 125.604 126.132 125.604 112.3C125.604 98.468 128.031 86.5773 132.884 76.628C137.859 66.5573 144.654 58.9133 153.268 53.696C162.004 48.3573 172.014 45.688 183.298 45.688C194.582 45.688 204.532 48.3573 213.146 53.696C221.882 58.9133 228.677 66.5573 233.53 76.628C238.505 86.5773 240.992 98.468 240.992 112.3C240.992 126.132 238.505 138.083 233.53 148.154C228.677 158.103 221.882 165.747 213.146 171.086C204.532 176.303 194.582 178.912 183.298 178.912ZM183.298 144.514C193.005 144.514 197.858 133.776 197.858 112.3C197.858 90.824 193.005 80.086 183.298 80.086C173.592 80.086 168.738 90.824 168.738 112.3C168.738 133.776 173.592 144.514 183.298 144.514Z" fill="white"/>
</svg>
