<svg width="58" height="78" viewBox="0 0 58 78" fill="none" xmlns="http://www.w3.org/2000/svg">
<path d="M17.06 43.68C13.98 43.68 11.46 42.64 9.5 40.56C7.58 38.44 6.62 35.62 6.62 32.1C6.62 28.58 7.58 25.78 9.5 23.7C11.46 21.58 13.98 20.52 17.06 20.52C20.14 20.52 22.64 21.58 24.56 23.7C26.48 25.78 27.44 28.58 27.44 32.1C27.44 35.62 26.48 38.44 24.56 40.56C22.64 42.64 20.14 43.68 17.06 43.68ZM42.08 21H49.22L20.54 63H13.4L42.08 21ZM17.06 38.76C18.42 38.76 19.48 38.2 20.24 37.08C21.04 35.96 21.44 34.3 21.44 32.1C21.44 29.9 21.04 28.24 20.24 27.12C19.48 26 18.42 25.44 17.06 25.44C15.74 25.44 14.68 26.02 13.88 27.18C13.08 28.3 12.68 29.94 12.68 32.1C12.68 34.26 13.08 35.92 13.88 37.08C14.68 38.2 15.74 38.76 17.06 38.76ZM45.56 63.48C43.56 63.48 41.76 63.02 40.16 62.1C38.6 61.14 37.38 59.78 36.5 58.02C35.62 56.26 35.18 54.22 35.18 51.9C35.18 49.58 35.62 47.54 36.5 45.78C37.38 44.02 38.6 42.68 40.16 41.76C41.76 40.8 43.56 40.32 45.56 40.32C48.64 40.32 51.14 41.38 53.06 43.5C55.02 45.58 56 48.38 56 51.9C56 55.42 55.02 58.24 53.06 60.36C51.14 62.44 48.64 63.48 45.56 63.48ZM45.56 58.56C46.92 58.56 47.98 58 48.74 56.88C49.54 55.72 49.94 54.06 49.94 51.9C49.94 49.74 49.54 48.1 48.74 46.98C47.98 45.82 46.92 45.24 45.56 45.24C44.24 45.24 43.18 45.8 42.38 46.92C41.58 48.04 41.18 49.7 41.18 51.9C41.18 54.1 41.58 55.76 42.38 56.88C43.18 58 44.24 58.56 45.56 58.56Z" fill="#534FD2"/>
<path d="M12.06 38.68C8.98 38.68 6.46 37.64 4.5 35.56C2.58 33.44 1.62 30.62 1.62 27.1C1.62 23.58 2.58 20.78 4.5 18.7C6.46 16.58 8.98 15.52 12.06 15.52C15.14 15.52 17.64 16.58 19.56 18.7C21.48 20.78 22.44 23.58 22.44 27.1C22.44 30.62 21.48 33.44 19.56 35.56C17.64 37.64 15.14 38.68 12.06 38.68ZM37.08 16H44.22L15.54 58H8.4L37.08 16ZM12.06 33.76C13.42 33.76 14.48 33.2 15.24 32.08C16.04 30.96 16.44 29.3 16.44 27.1C16.44 24.9 16.04 23.24 15.24 22.12C14.48 21 13.42 20.44 12.06 20.44C10.74 20.44 9.68 21.02 8.88 22.18C8.08 23.3 7.68 24.94 7.68 27.1C7.68 29.26 8.08 30.92 8.88 32.08C9.68 33.2 10.74 33.76 12.06 33.76ZM40.56 58.48C38.56 58.48 36.76 58.02 35.16 57.1C33.6 56.14 32.38 54.78 31.5 53.02C30.62 51.26 30.18 49.22 30.18 46.9C30.18 44.58 30.62 42.54 31.5 40.78C32.38 39.02 33.6 37.68 35.16 36.76C36.76 35.8 38.56 35.32 40.56 35.32C43.64 35.32 46.14 36.38 48.06 38.5C50.02 40.58 51 43.38 51 46.9C51 50.42 50.02 53.24 48.06 55.36C46.14 57.44 43.64 58.48 40.56 58.48ZM40.56 53.56C41.92 53.56 42.98 53 43.74 51.88C44.54 50.72 44.94 49.06 44.94 46.9C44.94 44.74 44.54 43.1 43.74 41.98C42.98 40.82 41.92 40.24 40.56 40.24C39.24 40.24 38.18 40.8 37.38 41.92C36.58 43.04 36.18 44.7 36.18 46.9C36.18 49.1 36.58 50.76 37.38 51.88C38.18 53 39.24 53.56 40.56 53.56Z" fill="white"/>
</svg>
