<svg width="266" height="392" viewBox="0 0 266 392" fill="none" xmlns="http://www.w3.org/2000/svg">
<path d="M14.1 70.3L45.9 108.5L31.1 130.3L0.5 94.2L14.1 70.3Z" fill="#4F3D9D"/>
<path d="M0.5 96.7L0.600006 94.4L14.2 71.8L44.3 108.5L34 123.3L23.2 119L0.5 96.7Z" fill="white"/>
<path d="M53.5 138.2L55 136.8L27.8 103.8L0.5 96.0001V96.7001L8.20001 106.6L53.5 138.2Z" fill="#F7F7F7"/>
<path d="M27.2 104.8L55 138.9L29.7 134.2L0.5 96.7001L27.2 104.8Z" fill="#5441AF"/>
<path d="M0.5 94.2001V96.7001L1.10001 96.9001L1 93.2001L0.5 94.2001Z" fill="#362E2D"/>
<path d="M91.6 231.2C91.6 231.2 70.8 249.2 62.8 256.7C54.8 264.2 50.8 267.2 48.8 272.7C46.8 278.2 42.3 317.7 41.5 330C40.7 342.3 40 368.8 40 368.8H53.8C53.8 368.8 58.8 351.3 63.8 341C68.8 330.7 76.1 319 79.3 310C82.5 301 84.1 288.7 84.1 288.7C84.1 288.7 96.9 287.5 111.9 280C126.9 272.5 133.2 268.7 133.2 268.7C133.2 268.7 142.5 287.2 150.5 302.7C158.5 318.2 161.5 323 168.5 329.7C175.5 336.4 202.7 348.1 215.2 351.9C232.5 357.1 247.6 359.1 247.6 359.1L250.1 345.8C250.1 345.8 230.1 335.7 219.2 328.2C209.2 321.3 200.9 313.5 198.4 307C195.9 300.5 192.3 263.4 189.1 246.7C185.9 230 179.6 222.9 179.6 222.9L91.6 231.2Z" fill="#FF6ED9"/>
<path d="M133.1 268.7C133.1 268.7 137.2 266.8 140.7 264.6C144.2 262.4 147.1 260 147.1 260C147.1 260 146.3 265.5 143.8 270.3C141.3 275.1 138.3 279.1 138.3 279.1L133.1 268.7Z" fill="#FF5ED2"/>
<path d="M96.4 274.8L90.4 270.1L95.1 264.1L101.1 268.8L96.4 274.8ZM91.8 270L96.2 273.4L99.6 269L95.2 265.6L91.8 270Z" fill="#5441AF"/>
<path d="M60.2 277.9L55.5 276.7L56.7 272L61.4 273.2L60.2 277.9ZM56.7 276L59.5 276.7L60.2 273.9L57.4 273.2L56.7 276Z" fill="#5441AF"/>
<path d="M129.1 254.5L124.4 253.3L125.6 248.6L130.3 249.8L129.1 254.5ZM125.6 252.6L128.4 253.3L129.1 250.5L126.3 249.8L125.6 252.6Z" fill="#5441AF"/>
<path d="M74.8 298.5L68.4 292.7L74.2 286.3L80.6 292.1L74.8 298.5ZM69.8 292.7L74.7 297.2L79.2 292.3L74.3 287.8L69.8 292.7Z" fill="#5441AF"/>
<path d="M160.4 255.6L154.7 250.6L159.7 244.9L165.4 249.9L160.4 255.6ZM156.1 250.6L160.3 254.3L164 250.1L159.8 246.4L156.1 250.6Z" fill="#5441AF"/>
<path d="M53.2 358.6L48.5 357.2L49.9 352.5L54.6 353.9L53.2 358.6ZM49.8 356.5L52.5 357.3L53.3 354.6L50.6 353.8L49.8 356.5Z" fill="#5441AF"/>
<path d="M46.9 340L45.4 332.9L52.5 331.4L54 338.5L46.9 340ZM46.6 333.6L47.7 338.8L52.9 337.7L51.8 332.5L46.6 333.6Z" fill="#5441AF"/>
<path d="M44.2 303.4C44.2 303.8 44.1 304.3 44.1 304.7L45.4 303.9L47.9 307.7L44.1 310.2L43.6 309.5C43.5 310 43.5 310.6 43.4 311.1L43.7 311.6L49.2 308.1L45.7 302.6L44.2 303.4Z" fill="#5441AF"/>
<path d="M82.2 244.7L77.7 247.4L76.1 244.8C75.8 245 75.6 245.2 75.3 245.5L77.3 248.8L83.5 245.1L80.8 240.7C80.5 240.9 80.3 241.1 80 241.4L82.2 244.7Z" fill="#5441AF"/>
<path d="M172.5 305.8L167.7 299.9L173.6 295.1L178.4 301L172.5 305.8ZM169.2 300.1L172.7 304.4L177 300.9L173.5 296.6L169.2 300.1Z" fill="#5441AF"/>
<path d="M175.3 328.3L171 326.1L173.2 321.8L177.5 324L175.3 328.3ZM172.3 325.7L174.9 327L176.2 324.4L173.6 323.1L172.3 325.7Z" fill="#5441AF"/>
<path d="M180 269.2L175.7 267L177.9 262.7L182.2 264.9L180 269.2ZM177 266.5L179.6 267.8L180.9 265.2L178.3 263.9L177 266.5Z" fill="#5441AF"/>
<path d="M200.8 311.7C200.6 311.4 200.4 311.2 200.2 310.9L196.6 313.4L192.8 307.9L197.5 304.7C197.4 304.4 197.3 304 197.3 303.6L191.5 307.6L196.4 314.7L200.8 311.7Z" fill="#5441AF"/>
<path d="M237.6 349.2L230.3 349.1L230.4 341.8L237.7 341.9L237.6 349.2ZM231.3 348.1L236.6 348.2L236.7 342.9L231.4 342.8L231.3 348.1Z" fill="#5441AF"/>
<path d="M203 346.2L200.8 340L207 337.8L209.2 344L203 346.2ZM202.1 340.6L203.6 344.9L207.9 343.4L206.4 339.1L202.1 340.6Z" fill="#5441AF"/>
<path d="M144.3 290.8L153.4 294.3L150.3 302.4C150.3 302.5 150.4 302.6 150.4 302.6C150.6 302.9 150.7 303.2 150.9 303.6L154.7 293.7L143.6 289.4C143.8 289.9 144 290.3 144.3 290.8Z" fill="#5441AF"/>
<path d="M63 322.9L68.5 330.5L69.8 329.5C70.2 328.8 70.5 328.2 70.9 327.5L68.7 329.1L64.4 323.1L70.4 318.8L73.4 322.9C73.6 322.6 73.7 322.2 73.9 321.9L70.7 317.4L63 322.9Z" fill="#5441AF"/>
<path d="M134.8 94.4C151.645 94.4 165.3 80.7447 165.3 63.9C165.3 47.0553 151.645 33.4 134.8 33.4C117.955 33.4 104.3 47.0553 104.3 63.9C104.3 80.7447 117.955 94.4 134.8 94.4Z" fill="#DF8E89"/>
<path d="M40.1 368.7C40.1 368.7 40.4 372.5 38.8 373.3C35.7 375.1 30.6 378 27.7 379.9C23.4 382.7 18.1 387.6 18.6 390.1C19.1 392.5 28.2 390.3 41.4 385.2C54.6 380.2 57.1 381.6 54.8 373.8C53.8 370.3 53.5 368.4 53.5 368.4L40.1 368.7Z" fill="#5441AF"/>
<path d="M247.4 359C247.4 359 251.1 359.5 251.7 361.2C252.8 364.6 254.7 370.2 256 373.4C257.9 378.2 261.7 384.3 264.2 384.3C266.7 384.3 266.3 374.9 264 361C261.7 347.1 263.6 344.9 255.5 345.6C251.9 345.9 250 345.8 250 345.8L247.4 359Z" fill="#5441AF"/>
<path d="M42.9 140C42.9 140 40.6 130.4 36.2 126.2C31.9 122 25.1 121 21 117.5C16.9 114 15.2 107.9 12.5 108.1C9.79998 108.3 8.70001 120 12.9 124.1C17.1 128.2 21.6 130.4 24.9 135C28.2 139.6 32.3 143.2 34.3 144.1C36.3 145 42.9 140 42.9 140Z" fill="#DF8E89"/>
<path d="M194.7 35.1C194.7 35.1 194.5 28.3 197.4 23C200.3 17.7 208.5 14.5 211.3 9.90003C214.1 5.30003 218.7 0.700027 221.4 0.100027C224.1 -0.499973 223.9 7.80003 221.1 13C218.3 18.2 212.2 19.5 210.4 24.9C208.6 30.3 205.8 34.9 204.2 36.4C202.5 37.8 194.7 35.1 194.7 35.1Z" fill="#DF8E89"/>
<path d="M113.2 29.7C113.2 29.7 111.2 42.2 122.3 49C133.4 55.8 141.2 52.4 141.2 52.4C141.2 52.4 138.9 64.5 146.1 74C153.3 83.5 156.5 85.4 156.5 85.4C156.5 85.4 174.4 72.3 170.4 58.2C168.1 50.2 162.7 48.3 162.7 48.3C162.7 48.3 163 40.4 154.7 34.3C146.4 28.2 130.4 33.2 123.7 32.8C117 32.4 113.2 29.7 113.2 29.7Z" fill="#FF353A"/>
<path d="M33.1 146.2L42.6 136.2L49.6 143.5C49.6 143.5 59.4 145.3 64.2 146.9C69 148.5 73.1 151.2 73.1 151.2C73.1 151.2 96 130.3 108.2 124.2C120.4 118 139.4 114.2 154.2 106.9C169 99.6 182.2 85.6 182.2 85.6C182.2 85.6 187.2 69.8 189 63.4C190.8 57.1 193 45.9 193 45.9V34.8H206V45C206 45 210 55.7 211.2 73.8C212.4 92 208 106.6 208 106.6C208 106.6 190.5 122.8 184.3 128.9C178.1 135.1 170 143.6 170 143.6C170 143.6 175.7 164.1 180.5 185.1C185.3 206.1 186.2 225.1 186.2 225.1C186.2 225.1 164.9 241.1 135.5 242.1C106.1 243.1 86.7 231.4 86.7 231.4C86.7 231.4 87 214.1 88.4 202.6C89.7 191.1 95.7 174.1 95.7 174.1C95.7 174.1 90.7 179.8 86 183.3C81.3 186.8 76 189.6 76 189.6C76 189.6 61.8 184.8 53.2 173.6C44.5 162.4 40.5 152.9 40.5 152.9L33.1 146.2Z" fill="#5441AF"/>
<path d="M95.7 174.2C95.7 174.2 101.3 157.9 104.5 148.9C107.7 139.9 109.2 136.5 109.2 136.5C109.2 136.5 101.4 143.9 97 156.2C92.6 168.5 89.3 180.8 89.3 180.8L95.7 174.2Z" fill="#4F3D9D"/>
</svg>
