<svg width="282" height="400" viewBox="0 0 282 400" fill="none" xmlns="http://www.w3.org/2000/svg">
<path d="M6.90916 9.36079L19.6945 55.2091L49.8427 46.8019L37.0573 0.953607L6.90916 9.36079Z" fill="#362E2D"/>
<path d="M4.20001 12.5L6.80001 9.59995L35.5 4.69995L48.3 46L37.5 70.3L17.3 57.0999L4.20001 12.5Z" fill="white"/>
<path d="M25.8 30.2L38.6 72.2L16.9 58.3L4.20001 12.5L25.8 30.2Z" fill="#4E3734"/>
<path d="M6.79999 10.4L33.6 9.39995L46.6 49.8L48.3 46L35.5 4.69995L7.59999 9.39995L6.79999 10.4Z" fill="#F7F7F7"/>
<path d="M126.9 77.3C143.745 77.3 157.4 63.6447 157.4 46.8C157.4 29.9553 143.745 16.3 126.9 16.3C110.055 16.3 96.4 29.9553 96.4 46.8C96.4 63.6447 110.055 77.3 126.9 77.3Z" fill="#8C503E"/>
<path d="M266.2 335.5C266.2 335.5 270 345 271.7 350.2C273.4 355.4 276.4 361.9 278.9 362.1C281.4 362.3 281.9 352.6 280.3 337.8C278.7 323.1 279.9 321 271.8 321.1C268.2 321.1 266.2 320.8 266.2 320.8V335.5Z" fill="#FF6ED9"/>
<path d="M42.2 386.9C42.2 386.9 31.3 388.6 25.6 390.9C19.9 393.2 15.5 395.5 15.5 398.3C15.5 400.5 25.9 399.8 42.1 399.8C58.7 399.9 63.4 400.3 60.5 391.9C59.5 389 56.9 386.6 56.9 386.6L42.2 386.9Z" fill="#FF6ED9"/>
<path d="M157.4 46.8C157.4 29.9 143.7 16.3 126.9 16.3C122.3 16.3 117.9 17.3 114 19.2L113.2 19.6C112.2 21.5 111.6 23.6 111.6 25.9C111.6 33.2 117.5 39.1 124.8 39.1C125.4 39.1 126 39 126.7 39C125.9 40 125.5 41.3 125.5 42.7C125.5 45.8 127.9 48.4 130.9 48.8C130.6 49.6 130.5 50.4 130.5 51.2C130.5 55 133.6 58.1 137.4 58.1H137.5C138.1 60.9 140.5 62.9 143.5 62.9C144.3 62.9 145.1 62.7 145.8 62.5C146.2 64.6 148.1 66.2 150.3 66.2L152 64.6C155.3 59.6 157.4 53.4 157.4 46.8Z" fill="#4E3734"/>
<path d="M35.8 82.7C35.8 82.7 36.4 72.8 33.5 67.5C30.6 62.2 24.4 59.3 21.5 54.7C18.7 50.1 18.8 43.8 16.1 43.2C13.4 42.6 8.89999 53.4 11.8 58.6C14.6 63.8 18.2 67.2 20 72.5C21.8 77.8 24.6 82.5 26.3 84C28.1 85.5 35.8 82.7 35.8 82.7Z" fill="#8C503E"/>
<path d="M206.3 201.6C206.3 201.6 209.8 210.9 214.7 214.5C219.5 218.1 226.4 218.2 230.9 221.3C235.4 224.3 237.8 230.1 240.5 229.5C243.2 228.9 242.8 217.2 238.1 213.7C233.4 210.1 228.7 208.5 224.9 204.4C221.1 200.3 216.6 197.2 214.4 196.5C212.2 195.8 206.3 201.6 206.3 201.6Z" fill="#8C503E"/>
<path d="M90.2 222.1C90.2 222.1 70.7 262.8 62.2 294.4C51 336.2 42.2 387 42.2 387L56.8 386.8C56.8 386.8 74.5 366.2 100.1 324.5C125.9 282.4 137.6 255.7 137.6 255.7C137.6 255.7 154.9 318.1 166.2 327.9C182 341.6 218.9 341 230.6 340.2C242.3 339.4 266.1 335.6 266.1 335.6V320.9C266.1 320.9 236.1 316.1 224.1 311.1C212.1 306.1 197.8 302 197.8 302C197.8 302 193 268.6 189.5 250.9C186 233.2 181.2 212.9 181.2 212.9L90.2 222.1Z" fill="#5441AF"/>
<path d="M137.7 255.6L143.5 243.4C143.5 243.4 146.8 249.9 146.4 258.2C146.1 266.5 144.3 277.6 144.3 277.6L137.7 255.6Z" fill="#4F3D9D"/>
<path d="M0 96.9C0 96.9 5.2 97.1 13.7 102.6C32.7 114.9 38.9 141.5 61.9 145.4C81.2 148.7 93.7 142.9 93.7 142.9C93.7 142.9 86.2 164.4 84.2 174.2C82.2 184 82.4 201.7 74.4 209.5C66.4 217.3 62.7 221 62.7 221C62.7 221 97.7 227.3 126 222C154.3 216.7 169.7 214.8 174.8 215C180 215.2 188 216.2 188 216.2C188 216.2 184.8 209 181.8 201.7C178.8 194.4 178.1 187 178.1 187C178.1 187 197.1 202.2 200.1 207.2C203.1 212.2 203.6 220.5 203.6 220.5C203.6 220.5 207.9 211.2 210.9 208C213.9 204.8 216.2 201 219.9 198.2C223.6 195.4 225.7 193.2 225.7 193.2C225.7 193.2 221.7 193.5 218.2 190.4C214.7 187.2 195 163.1 191 159.2C187 155.4 172 139 172 139C172 139 170.2 86.8 139.3 87.8C119.8 88.4 108.5 93.3 96.1 100C83.8 106.7 72.9 114 72.9 114C72.9 114 51.9 101.3 44.6 86.1C42.1 81 41 77.2 41 77.2C41 77.2 33.3 78.6 22.7 83.8C11.4 89.5 0 96.9 0 96.9Z" fill="#FF353A"/>
<path d="M93.7 142.9C93.7 142.9 104.6 142.6 114.9 139.5C125.2 136.3 136.3 131.4 139 125.1C141.7 118.8 142.9 112.4 142.9 112.4C142.9 112.4 144.8 122.9 140.4 132.8C136 142.7 121.8 147.5 116.5 149.4C111.2 151.3 89.8 154.7 89.8 154.7L93.7 142.9Z" fill="#E2303D"/>
<path d="M173.2 150.2C173.2 150.2 174.8 167.8 175.5 173C176.2 178.2 178.3 187.2 178.3 187.2L183.5 191.4C183.5 191.4 179.8 180.3 178.4 172.4C176.8 164.5 173.2 150.2 173.2 150.2Z" fill="#E2303D"/>
<path d="M134.4 215.2C130.9 215.2 128.1 212.4 128.1 208.9C128.1 205.4 130.9 202.6 134.4 202.6C137.9 202.6 140.7 205.4 140.7 208.9C140.7 212.4 137.9 215.2 134.4 215.2ZM134.4 203.6C131.5 203.6 129.1 206 129.1 208.9C129.1 211.8 131.5 214.2 134.4 214.2C137.3 214.2 139.7 211.8 139.7 208.9C139.7 206 137.4 203.6 134.4 203.6Z" fill="#5441AF"/>
<path d="M162 114.3C164 114.3 165.8 113.3 167 111.8C166.9 111.4 166.7 111 166.6 110.6C165.7 112.2 164 113.2 162.1 113.2C159.2 113.2 156.8 110.8 156.8 107.9C156.8 105 159.2 102.6 162.1 102.6C162.4 102.6 162.7 102.6 163 102.7C162.8 102.3 162.6 102 162.4 101.6C162.3 101.6 162.2 101.6 162.1 101.6C158.6 101.6 155.8 104.4 155.8 107.9C155.8 111.4 158.5 114.3 162 114.3Z" fill="#5441AF"/>
<path d="M79.6 218C84.6 218 88.7 213.9 88.7 208.9C88.7 203.9 84.7 199.9 79.7 199.8C79.6 200.1 79.5 200.5 79.4 200.8C79.5 200.8 79.5 200.8 79.6 200.8C84.1 200.8 87.7 204.4 87.7 208.9C87.7 213.4 84.1 217 79.6 217C76.2 217 73.2 214.8 72 211.8C71.7 212.1 71.5 212.3 71.2 212.6C72.7 215.8 75.9 218 79.6 218Z" fill="#5441AF"/>
<path d="M104 118.9C100 118.9 96.8 115.7 96.8 111.7C96.8 107.7 100 104.5 104 104.5C108 104.5 111.2 107.7 111.2 111.7C111.2 115.7 107.9 118.9 104 118.9ZM104 105.6C100.6 105.6 97.8 108.4 97.8 111.8C97.8 115.2 100.6 118 104 118C107.4 118 110.2 115.2 110.2 111.8C110.2 108.4 107.4 105.6 104 105.6Z" fill="#5441AF"/>
<path d="M46.8 105.6C44.3 105.6 42.2 103.5 42.2 101C42.2 98.5 44.3 96.4 46.8 96.4C49.3 96.4 51.4 98.5 51.4 101C51.4 103.5 49.3 105.6 46.8 105.6ZM46.8 97.4C44.8 97.4 43.2 99 43.2 101C43.2 103 44.8 104.6 46.8 104.6C48.8 104.6 50.4 103 50.4 101C50.4 99 48.8 97.4 46.8 97.4Z" fill="#5441AF"/>
<path d="M194.9 163.4C194.3 164.5 193.1 165.2 191.8 165.2C189.8 165.2 188.2 163.6 188.2 161.6C188.2 160.2 189 159 190.2 158.4C190 158.2 189.7 157.9 189.5 157.7C188.1 158.5 187.2 160 187.2 161.7C187.2 164.2 189.3 166.3 191.8 166.3C193.4 166.3 194.8 165.5 195.6 164.3C195.4 163.9 195.2 163.6 194.9 163.4Z" fill="#5441AF"/>
<path d="M146.4 152.3C143.9 152.3 141.8 150.2 141.8 147.7C141.8 145.2 143.9 143.1 146.4 143.1C148.9 143.1 151 145.2 151 147.7C151 150.2 149 152.3 146.4 152.3ZM146.4 144.2C144.4 144.2 142.8 145.8 142.8 147.8C142.8 149.8 144.4 151.4 146.4 151.4C148.4 151.4 150 149.8 150 147.8C150 145.8 148.4 144.2 146.4 144.2Z" fill="#5441AF"/>
<path d="M14.2 98.4C12.6 98.4 11.2 99.4 10.5 100.7C10.8 100.9 11.1 101 11.4 101.2C11.9 100.1 13 99.4 14.2 99.4C15.9 99.4 17.3 100.8 17.3 102.5C17.3 103.3 17 104.1 16.4 104.6C16.7 104.8 16.9 105 17.2 105.2C17.9 104.5 18.3 103.5 18.3 102.5C18.3 100.2 16.5 98.4 14.2 98.4Z" fill="#5441AF"/>
<path d="M98.2 174.3C95.2 174.3 92.8 171.9 92.8 168.9C92.8 165.9 95.2 163.5 98.2 163.5C101.2 163.5 103.6 165.9 103.6 168.9C103.6 171.9 101.2 174.3 98.2 174.3ZM98.2 164.4C95.8 164.4 93.8 166.4 93.8 168.8C93.8 171.2 95.8 173.2 98.2 173.2C100.6 173.2 102.6 171.2 102.6 168.8C102.6 166.4 100.7 164.4 98.2 164.4Z" fill="#5441AF"/>
<path d="M196.9 195.5C194.7 195.5 192.8 196.8 191.9 198.7C192.2 198.9 192.4 199.2 192.7 199.4C193.3 197.7 194.9 196.4 196.9 196.4C199.3 196.4 201.3 198.4 201.3 200.8C201.3 202.7 200.1 204.3 198.4 204.9C198.7 205.2 198.9 205.4 199.1 205.7C201 204.8 202.3 203 202.3 200.8C202.3 197.9 199.9 195.5 196.9 195.5Z" fill="#5441AF"/>
<path d="M81.5 137.2C79.2 137.2 77.4 135.4 77.4 133.1C77.4 130.8 79.2 129 81.5 129C83.8 129 85.6 130.8 85.6 133.1C85.6 135.4 83.8 137.2 81.5 137.2ZM81.5 130C79.8 130 78.4 131.4 78.4 133.1C78.4 134.8 79.8 136.2 81.5 136.2C83.2 136.2 84.6 134.8 84.6 133.1C84.6 131.4 83.2 130 81.5 130Z" fill="#5441AF"/>
<path d="M162 187.3C158.8 187.3 156.3 184.7 156.3 181.6C156.3 178.5 158.9 175.9 162 175.9C165.1 175.9 167.7 178.5 167.7 181.6C167.7 184.7 165.2 187.3 162 187.3ZM162 176.8C159.4 176.8 157.3 178.9 157.3 181.5C157.3 184.1 159.4 186.2 162 186.2C164.6 186.2 166.7 184.1 166.7 181.5C166.7 178.9 164.6 176.8 162 176.8Z" fill="#5441AF"/>
<path d="M121.9 184.6C120.2 184.6 118.9 183.2 118.9 181.6C118.9 179.9 120.3 178.6 121.9 178.6C123.5 178.6 124.9 180 124.9 181.6C124.9 183.2 123.6 184.6 121.9 184.6ZM121.9 179.5C120.8 179.5 119.9 180.4 119.9 181.5C119.9 182.6 120.8 183.5 121.9 183.5C123 183.5 123.9 182.6 123.9 181.5C123.9 180.4 123 179.5 121.9 179.5Z" fill="#5441AF"/>
<path d="M49.3 140.3C50.1 139.3 50.6 138 50.6 136.5C50.6 133 47.8 130.2 44.3 130.2C42.7 130.2 41.2 130.8 40.1 131.8C40.3 132.1 40.6 132.3 40.8 132.6C41.7 131.8 43 131.2 44.3 131.2C47.2 131.2 49.6 133.6 49.6 136.5C49.6 137.7 49.2 138.8 48.5 139.7C48.7 139.9 49 140.1 49.3 140.3Z" fill="#5441AF"/>
<path d="M26.3 390.3C26.3 390.3 27.4 390.9 28.1 392C28.8 393.1 28.6 394.8 28.6 394.8" stroke="#5441AF" stroke-miterlimit="10"/>
<path d="M30 388.8C30 388.8 31.1 389.4 31.8 390.5C32.5 391.6 32.3 393.3 32.3 393.3" stroke="#5441AF" stroke-miterlimit="10"/>
<path d="M33.6 387.9C33.6 387.9 34.7 388.5 35.4 389.6C36.1 390.7 35.9 392.4 35.9 392.4" stroke="#5441AF" stroke-miterlimit="10"/>
<path d="M36.9 386.8C36.9 386.8 38 387.4 38.7 388.5C39.4 389.6 39.2 391.3 39.2 391.3" stroke="#5441AF" stroke-miterlimit="10"/>
<path d="M270.9 349.5C270.9 349.5 271.4 348.3 272.5 347.6C273.6 346.9 275.3 347 275.3 347" stroke="#5441AF" stroke-miterlimit="10"/>
<path d="M269.2 345.9C269.2 345.9 269.7 344.7 270.8 344C271.9 343.3 273.6 343.4 273.6 343.4" stroke="#5441AF" stroke-miterlimit="10"/>
<path d="M268.2 342.3C268.2 342.3 268.7 341.1 269.8 340.4C270.9 339.7 272.6 339.8 272.6 339.8" stroke="#5441AF" stroke-miterlimit="10"/>
<path d="M266.9 339.1C266.9 339.1 267.4 337.9 268.5 337.2C269.6 336.5 271.3 336.6 271.3 336.6" stroke="#5441AF" stroke-miterlimit="10"/>
</svg>
