<svg width="240" height="372" viewBox="0 0 240 372" fill="none" xmlns="http://www.w3.org/2000/svg">
<path d="M192.2 209.1L194.3 205.3L227.1 186.2L240 209.1L239.4 211.9L205.3 231.7L192.2 209.1Z" fill="#FF5ED2"/>
<path d="M226.429 189.358L192.222 209.108L205.222 231.624L239.429 211.874L226.429 189.358Z" fill="#FF6ED9"/>
<path d="M58.2 356.6C58.2 356.6 52.6 322.3 57.9 288.7C63.3 254.6 72.4 219 72.4 219C72.4 219 101.2 225 121.7 221.2C142.2 217.4 166.7 210.5 166.7 210.5C166.7 210.5 170.9 229.8 173.3 252.8C175.6 275.8 174.1 272.3 177.4 283.6C180.7 294.9 192.3 327.9 196.6 337.6C201 347.3 205.7 359.3 205.7 359.3H190.4C190.4 359.3 160.2 327.8 147.4 308.8C134.6 289.8 118.8 256.1 118.8 256.1C118.8 256.1 101.8 291.3 94.9 305.9C88 320.6 70.7 359.9 70.7 359.9L58.2 356.6Z" fill="#4E3734"/>
<path d="M120.9 91C137.027 91 150.1 77.9267 150.1 61.8C150.1 45.6733 137.027 32.6 120.9 32.6C104.773 32.6 91.7 45.6733 91.7 61.8C91.7 77.9267 104.773 91 120.9 91Z" fill="#DF8E89"/>
<path d="M145.9 77C148.6 72.6 150.2 67.3 150.2 61.8C150.2 45.6 137.1 32.6 121 32.6C115 32.6 109.5 34.4 104.9 37.5C104.9 37.5 101.7 48 109.5 54.9C117.4 61.9 125.9 57.9 125.9 57.9C125.9 57.9 122.6 68 131.2 74.3C138.5 79.7 145.9 77 145.9 77Z" fill="#4E3734"/>
<path d="M149.2 50C163.007 50 174.2 38.8071 174.2 25C174.2 11.1929 163.007 0 149.2 0C135.393 0 124.2 11.1929 124.2 25C124.2 38.8071 135.393 50 149.2 50Z" fill="#4E3734"/>
<path d="M122.1 239.6C122.1 239.6 121.1 246.4 120.3 250C119.5 253.6 118.7 256.2 118.7 256.2L127.3 273.7C127.3 273.7 127.7 259.2 126.1 251.1C124.5 243 122.1 239.6 122.1 239.6Z" fill="#362E2D"/>
<path d="M58.2 356.6C58.2 356.6 48.3 358.3 43.2 358.9C38.1 359.5 31.5 361.2 30.9 363.6C30.3 366 39.1 368.4 52.9 369.9C66.7 371.3 67.9 372.9 69.1 365.1C69.6 361.5 70.5 360.1 70.5 360.1L58.2 356.6Z" fill="#FF353A"/>
<path d="M192.9 359.5C192.9 359.5 183.8 361.1 179 363.1C174.2 365.1 170.5 367.2 170.5 369.7C170.5 371.6 179.2 371 192.8 371.1C206.7 371.2 210.6 371.5 208.2 364C207.4 361.4 205.1 359.3 205.1 359.3L192.9 359.5Z" fill="#FF353A"/>
<path d="M29.5 151.6C29.5 151.6 24.9 145.9 21.7 144.1C18.5 142.3 13 140.3 10.4 138.8C7.8 137.3 2.60001 133.8 1.10001 136.1C-0.399988 138.4 1.90001 142.4 5.50001 144.5C9.10001 146.7 14.7 156.3 20 157C25.3 157.7 27.6 157.9 27.6 157.9L29.5 151.6Z" fill="#DF8E89"/>
<path d="M206.6 187.9C206.6 187.9 208.9 187 212.3 190.4C215.7 193.8 218.9 201.6 220.1 204.5C221.3 207.4 221.6 210.3 222.7 212.3C223.8 214.4 224.1 216.6 222.7 217.4C221.3 218.2 217.1 215 213.8 211.7C210.5 208.4 206.5 206.2 204.4 201.7C202.4 197.4 202.6 193.9 202.6 193.9L206.6 187.9Z" fill="#DF8E89"/>
<path d="M31 147C31 147 46.6 149.8 52.1 150.8C57.6 151.8 64.1 153 64.1 153C64.1 153 79.6 133.2 90.2 122.3C100.8 111.5 106.6 104 122.3 104C142.5 104 166.2 129.6 179.1 144.7C194 162.2 208.2 185.5 208.2 185.5L200.4 197.3C200.4 197.3 182.3 183.6 175.1 179.6C167.9 175.6 157.4 170.3 157.4 170.3C157.4 170.3 161.2 180.6 163.8 192.1C166.4 203.6 166.8 210.4 166.8 210.4C166.8 210.4 150.1 221.7 120.7 223.4C91.3 225.1 72.5 218.9 72.5 218.9C72.5 218.9 74.1 207.6 75.8 200.2C77.5 192.9 79.4 186.4 79.4 186.4C79.4 186.4 68.8 187.3 55.1 182.5C37.3 176.3 26.2 162.4 26.2 162.4L31 147Z" fill="#7B6DCF"/>
<path d="M79.3 186.5C79.3 186.5 76.8 195.5 76.1 198.7C75.4 201.9 74.6 205.9 74.6 205.9C74.6 205.9 106 175.2 112.8 167.7C119.6 160.2 131.7 146.9 131.4 135.2C131.1 123.5 128.8 120.9 128.8 120.9C128.8 120.9 130.2 128.4 127.5 136.1C123.7 146.8 107.9 160.7 100.4 167.7C94.2 173.6 79.3 186.5 79.3 186.5Z" fill="#6A5AC1"/>
<path d="M148.4 138.9C148.4 138.9 152.5 150.7 154.1 156.2C155.7 161.7 157.3 170.3 157.3 170.3L163.3 173.4C163.3 173.4 159 160.9 156.3 154C153.6 147.1 148.4 138.9 148.4 138.9Z" fill="#6A5AC1"/>
<path d="M151.8 178.3L151.3 182.6L154.5 185.4L150.4 186.2L148.7 190.1L146.6 186.4L142.3 186.1L145.2 182.9L144.3 178.8L148.1 180.5L151.8 178.3Z" fill="#FF6ED9"/>
<path d="M166.7 210.5C166.7 210.5 166.6 208.8 166.2 205.6L164.2 208L160.7 207.7L162.6 210.7L161.3 213.6C164.9 211.7 166.7 210.5 166.7 210.5Z" fill="#FF6ED9"/>
<path d="M83.4 132.6L85 135.4L86.3 132.4L89.5 131.7L87 129.6L87.4 126.4L85.4 127.6C84 129.1 82.6 130.7 81.2 132.4L83.4 132.6Z" fill="#FF6ED9"/>
<path d="M84 221.6L87.5 220.8L84.2 218.1L84.6 213.9L81 216.2L77.1 214.6L78.2 218.7L76.9 220.2C78.7 220.6 81.1 221.1 84 221.6Z" fill="#FF6ED9"/>
<path d="M134.4 207.7L136.8 208.4L138.7 206.7L138.8 209.2L141 210.5L138.7 211.4L138.1 213.8L136.5 211.9L134.1 212.1L135.4 210L134.4 207.7Z" fill="#FF6ED9"/>
<path d="M86.4 159.2L89.5 160L92 157.9L92.2 161.2L94.9 162.8L91.9 164L91.2 167.1L89.1 164.6L85.9 164.9L87.7 162.2L86.4 159.2Z" fill="#FF6ED9"/>
<path d="M196.1 167.1L195.8 167.3L192.7 166.5L194 169.5L192.3 172.2L195.5 171.9L197.5 174.4L198.2 171.3L198.8 171.1C198 169.8 197.1 168.5 196.1 167.1Z" fill="#FF6ED9"/>
<path d="M121.7 165.6L123.4 166L124.7 164.9L124.8 166.6L126.3 167.5L124.7 168.1L124.3 169.8L123.2 168.5L121.5 168.7L122.4 167.2L121.7 165.6Z" fill="#FF6ED9"/>
<path d="M63 176.9L64.4 175.9V174.2L65.8 175.2L67.4 174.6L66.9 176.3L68 177.7H66.2L65.2 179.1L64.7 177.4L63 176.9Z" fill="#FF6ED9"/>
<path d="M195.9 189.4L197.6 189.8L198.9 188.7L199 190.4L200.5 191.3L198.9 192L198.5 193.7L197.4 192.3L195.7 192.5L196.6 191L195.9 189.4Z" fill="#FF6ED9"/>
<path d="M121.7 111.9L123.4 112.4L124.7 111.2L124.8 113L126.3 113.9L124.7 114.5L124.3 116.2L123.2 114.9L121.5 115L122.4 113.5L121.7 111.9Z" fill="#FF6ED9"/>
<path d="M165.9 143.1L167.6 143.5L168.9 142.4L169 144.1L170.5 145L168.9 145.6L168.5 147.3L167.4 146L165.6 146.2L166.6 144.7L165.9 143.1Z" fill="#FF6ED9"/>
<path d="M41.6 159.7L44.5 160.5L46.8 158.5L47 161.5L49.6 163.1L46.8 164.2L46.1 167.2L44.2 164.8L41.1 165.1L42.8 162.5L41.6 159.7Z" fill="#FF6ED9"/>
<path d="M103.6 190.1L108.8 194.1L114.9 192L112.8 198.1L116.6 203.3L110.2 203.2L106.4 208.5L104.5 202.3L98.4 200.3L103.7 196.6L103.6 190.1Z" fill="#FF6ED9"/>
<path d="M106 126.4L110.1 129.5L115 127.9L113.3 132.7L116.4 136.9L111.2 136.8L108.2 140.9L106.7 136L101.9 134.5L106.1 131.5L106 126.4Z" fill="#FF6ED9"/>
<path d="M175.1 169.2L172.3 164.9L170.6 169.7L165.6 171L169.6 174.2L169.5 176.7C170.2 177.1 170.9 177.4 171.5 177.8L173.6 176.4L178.4 178.3L177 173.4L180.3 169.4L175.1 169.2Z" fill="#FF6ED9"/>
<path d="M142.9 126.4L148.6 123.3L154.4 126.2L153.2 119.8L154 119C151.5 116.9 148.9 114.9 146.3 113.1L145.7 114.5L139.3 115.6L144 120L142.9 126.4Z" fill="#FF6ED9"/>
</svg>
