<svg width="226" height="430" viewBox="0 0 226 430" fill="none" xmlns="http://www.w3.org/2000/svg">
<path d="M42.5 251.8C42.5 251.8 38.7 288.8 53.5 332.1C68.3 375.4 86.3 415.7 86.3 415.7H101.6C101.6 415.7 104.1 377.6 103.6 352.6C103.1 327.6 102.8 308.8 102.8 308.8C102.8 308.8 114.7 320.4 121.3 324.6C127.9 328.8 135.7 328.5 144.8 326.7C153.9 324.9 198.7 313.8 198.7 313.8L197.7 301.3C197.7 301.3 178.2 295 166.1 292.8C154 290.6 140.3 286.3 140.3 286.3C140.3 286.3 134.4 269.6 127.4 255.7C120.4 241.8 117.6 237.3 117.6 237.3L42.5 251.8Z" fill="#7B6DCF"/>
<path d="M102.8 308.8C102.8 308.8 93.9 301.6 87.9 295.1C81.9 288.6 77.3 281.5 77.3 281.5C77.3 281.5 83.7 296.4 91.9 304.5C99.5 312.1 102.9 314 102.9 314L102.8 308.8Z" fill="#6A5AC1"/>
<path d="M95.3 332.4L87.1 325.1L97.5 325.5L95.3 332.4Z" fill="#FF6ED9"/>
<path d="M73.9 311.4L77.9 305L78.8 312.1L73.9 311.4Z" fill="#FF6ED9"/>
<path d="M95.1 401.5L92.3 394.4L98.6 397.9L95.1 401.5Z" fill="#FF6ED9"/>
<path d="M109.1 266.4L110.9 274.3L103.4 271.7L109.1 266.4Z" fill="#FF6ED9"/>
<path d="M77.8 380.1L82.6 379.5L80.6 383.9L77.8 380.1Z" fill="#FF6ED9"/>
<path d="M129.3 298.1L134.2 297.4L132.1 301.9L129.3 298.1Z" fill="#FF6ED9"/>
<path d="M149.2 306.3L152.8 300.1L156.4 305.8L149.2 306.3Z" fill="#FF6ED9"/>
<path d="M187.3 309.9L192.3 305.2L195.1 309.5L187.3 309.9Z" fill="#FF6ED9"/>
<path d="M80.5 263L81.2 258.1L84.9 261.4L80.5 263Z" fill="#FF6ED9"/>
<path d="M65.7 342L73.8 350.2L62.8 352.7L65.7 342Z" fill="#FF6ED9"/>
<path d="M111.2 292L107.4 302.9L100.3 294.1L111.2 292Z" fill="#FF6ED9"/>
<path d="M166.8 297.4L176.1 306.1L165.7 310.7L166.8 297.4Z" fill="#FF6ED9"/>
<path d="M59.5 276L66.5 284.7L69 276H59.5Z" fill="#FF6ED9"/>
<path d="M127.4 255.7C127.2 255.2 126.9 254.8 126.7 254.3L123.5 251.9L124.1 269.1L131.2 263.6C130 261 128.7 258.3 127.4 255.7Z" fill="#FF6ED9"/>
<path d="M42.1 264.3C42.1 266.6 42.2 269.1 42.3 271.9L47 272.6L42.5 264L42.1 264.3Z" fill="#FF6ED9"/>
<path d="M103.6 361.8C103.6 358.6 103.6 355.5 103.5 352.6C103.5 352 103.5 351.4 103.5 350.8L88.1 355.7L103.6 361.8Z" fill="#FF6ED9"/>
<path d="M144.1 314L132.2 322.1L141.3 327.4C142.4 327.2 143.5 327 144.7 326.8C145.6 326.6 147 326.3 148.6 326L144.1 314Z" fill="#FF6ED9"/>
<path d="M48.6 315.6H59.2L49.6 295.8L46.7 307.7C47.4 310.3 48 312.9 48.6 315.6Z" fill="#FF6ED9"/>
<path d="M82.2 126.4C98.3267 126.4 111.4 113.327 111.4 97.2C111.4 81.0733 98.3267 68 82.2 68C66.0733 68 53 81.0733 53 97.2C53 113.327 66.0733 126.4 82.2 126.4Z" fill="#8C503E"/>
<path d="M198.5 313.8C198.5 313.8 201.1 324.2 202.7 329.2C204.3 334.1 207.3 340.3 209.7 340.4C212.2 340.5 212.8 331.3 211.4 317.3C210 303.3 211.2 301.4 203.1 301.5C199.5 301.5 197.6 301.3 197.6 301.3L198.5 313.8Z" fill="#4E3734"/>
<path d="M86.3 415.7C86.3 415.7 75.9 417.9 70.2 420.1C64.5 422.3 60.1 424.7 60.1 427.5C60.1 429.7 70.5 429 86.7 429C103.3 429.1 108 429.5 105.1 421.1C104.1 418.2 101.6 415.6 101.6 415.6H86.3V415.7Z" fill="#4E3734"/>
<path d="M28.1 58.6C28.1 58.6 25.7 51.5 26 47.6C26.3 43.7 27.5 37.7 27.7 34.5C27.9 31.3 27.7 24.8 30.5 24.6C33.3 24.4 35.4 28.5 35.3 32.9C35.2 37.3 40.3 47.4 38 52.6C35.7 57.8 34.6 60 34.6 60L28.1 58.6Z" fill="#8C503E"/>
<path d="M199.1 141.2C199.1 141.2 206.2 138.8 209.1 136.3C212 133.8 216.1 129.2 218.6 127.1C221.1 125 226.4 121.2 224.8 118.9C223.2 116.6 218.7 117.3 215.2 120.1C211.8 122.8 200.6 124.8 197.8 129.7C195 134.6 194 136.9 194 136.9L199.1 141.2Z" fill="#8C503E"/>
<path d="M22.3 56.8L38.8 60.6C38.8 60.6 37.2 100.8 38.5 106.3C40.3 113.5 70.3 137.3 70.3 137.3C70.3 137.3 102.8 137.6 113.3 141.6C123.8 145.6 134.8 152.9 144.8 153.6C154.8 154.3 191.6 132.6 191.6 132.6L203.4 144.6C203.4 144.6 192.9 158.5 185.6 165.4C176.1 174.4 160.6 186.9 149.8 188.4C139 189.9 105.5 177.4 105.5 177.4C105.5 177.4 113 203.4 118.7 214.7C124.5 226 130 234.2 130 234.2C130 234.2 104.1 249.7 82.2 254C60.3 258.3 35.5 254 35.5 254C35.5 254 28.7 235.7 34 206C39.3 176.3 43 169 43 169C43 169 16.7 133.3 12.5 118.7C8.3 104.1 22.3 56.8 22.3 56.8Z" fill="#FF6ED9"/>
<path d="M91.8 162.4C91.8 162.4 96.6 169.7 100 172.7C103.3 175.6 105.6 177.4 105.6 177.4L110.7 193.8C110.7 193.8 101.4 186.9 97.9 180.1C94.2 173.2 91.8 162.4 91.8 162.4Z" fill="#FF5ED2"/>
<path d="M43 168.8C43 168.8 46.6 158.7 52.9 151.3C60.1 143 70.2 137.3 70.2 137.3L66.9 134.7C66.9 134.7 57.8 138.2 49.7 147.2C42.7 155 39.8 164.6 39.8 164.6L43 168.8Z" fill="#FF5ED2"/>
<path d="M111.5 97.2C111.5 81 98.4 68 82.3 68C75.7 68 69.5 70.2 64.6 74C64.6 74 57.5 83.5 67.3 89.6C77.1 95.7 83.9 91.2 83.9 91.2C83.9 91.2 86.4 93.4 86.2 97.3C85.7 104.6 75.9 106.3 76.1 115.7C76.4 128.7 90.9 126.7 90.9 133.6C90.9 139.6 83.2 143.3 82.5 151.3C81.8 159.5 85.7 165.6 91.7 166.9C111.3 171.2 117.5 148.4 118.5 142C119.5 135.6 117.1 123.2 113.5 111.1C112.4 107.2 111.5 97.2 111.5 97.2Z" fill="white"/>
<path d="M44.0342 1.68794L3.93591 27.3396L20.8035 53.7067L60.9018 28.0551L44.0342 1.68794Z" fill="#4F3D9D"/>
<path d="M40.1 0L43.7 1.6L56.8 27.7L21 52L1.29999 56.8V25.6L40.1 0Z" fill="white"/>
<path d="M40.3 31.9L0.200012 57.6L0.0999756 25.6L40.1 0L40.3 31.9Z" fill="#5441AF"/>
<path d="M40.1 0L43.9 1.8L44.1 2.4L40.1 0.9V0Z" fill="#4F3D9D"/>
<path d="M42.9 1.90002L51.8 27.3L13.6 53.8L21 52L56.8 27.7L44.1 2.40002L42.9 1.90002Z" fill="#F7F7F7"/>
<path d="M33.5 50.3L34.2 43L37.1 41.1L37.9 44.1L33.5 50.3Z" fill="#8C503E"/>
</svg>
