<svg width="88" height="78" viewBox="0 0 88 78" fill="none" xmlns="http://www.w3.org/2000/svg">
<path d="M41.84 30.72V63H32.96V59.16C31.72 60.56 30.24 61.64 28.52 62.4C26.8 63.12 24.94 63.48 22.94 63.48C18.7 63.48 15.34 62.26 12.86 59.82C10.38 57.38 9.14 53.76 9.14 48.96V30.72H18.5V47.58C18.5 52.78 20.68 55.38 25.04 55.38C27.28 55.38 29.08 54.66 30.44 53.22C31.8 51.74 32.48 49.56 32.48 46.68V30.72H41.84ZM69.5914 30.24C72.5914 30.24 75.3114 30.94 77.7514 32.34C80.2314 33.7 82.1714 35.64 83.5714 38.16C84.9714 40.64 85.6714 43.54 85.6714 46.86C85.6714 50.18 84.9714 53.1 83.5714 55.62C82.1714 58.1 80.2314 60.04 77.7514 61.44C75.3114 62.8 72.5914 63.48 69.5914 63.48C65.4714 63.48 62.2314 62.18 59.8714 59.58V74.64H50.5114V30.72H59.4514V34.44C61.7714 31.64 65.1514 30.24 69.5914 30.24ZM67.9714 55.8C70.3714 55.8 72.3314 55 73.8514 53.4C75.4114 51.76 76.1914 49.58 76.1914 46.86C76.1914 44.14 75.4114 41.98 73.8514 40.38C72.3314 38.74 70.3714 37.92 67.9714 37.92C65.5714 37.92 63.5914 38.74 62.0314 40.38C60.5114 41.98 59.7514 44.14 59.7514 46.86C59.7514 49.58 60.5114 51.76 62.0314 53.4C63.5914 55 65.5714 55.8 67.9714 55.8Z" fill="#534FD2"/>
<path d="M36.84 25.72V58H27.96V54.16C26.72 55.56 25.24 56.64 23.52 57.4C21.8 58.12 19.94 58.48 17.94 58.48C13.7 58.48 10.34 57.26 7.86 54.82C5.38 52.38 4.14 48.76 4.14 43.96V25.72H13.5V42.58C13.5 47.78 15.68 50.38 20.04 50.38C22.28 50.38 24.08 49.66 25.44 48.22C26.8 46.74 27.48 44.56 27.48 41.68V25.72H36.84ZM64.5914 25.24C67.5914 25.24 70.3114 25.94 72.7514 27.34C75.2314 28.7 77.1714 30.64 78.5714 33.16C79.9714 35.64 80.6714 38.54 80.6714 41.86C80.6714 45.18 79.9714 48.1 78.5714 50.62C77.1714 53.1 75.2314 55.04 72.7514 56.44C70.3114 57.8 67.5914 58.48 64.5914 58.48C60.4714 58.48 57.2314 57.18 54.8714 54.58V69.64H45.5114V25.72H54.4514V29.44C56.7714 26.64 60.1514 25.24 64.5914 25.24ZM62.9714 50.8C65.3714 50.8 67.3314 50 68.8514 48.4C70.4114 46.76 71.1914 44.58 71.1914 41.86C71.1914 39.14 70.4114 36.98 68.8514 35.38C67.3314 33.74 65.3714 32.92 62.9714 32.92C60.5714 32.92 58.5914 33.74 57.0314 35.38C55.5114 36.98 54.7514 39.14 54.7514 41.86C54.7514 44.58 55.5114 46.76 57.0314 48.4C58.5914 50 60.5714 50.8 62.9714 50.8Z" fill="white"/>
</svg>
